Coordinates
version=1
nRows=10
nColumns=34
inDegrees=yes

Units are S.I. units (second, meters, Newtons, ...)
If the header above contains a line with 'inDegrees', this indicates whether rotational values are in degrees (yes) or radians (no).

endheader
time	pelvis_tilt	pelvis_list	pelvis_rotation	pelvis_tx	pelvis_ty	pelvis_tz	hip_flexion_l	hip_adduction_l	hip_rotation_l	hip_flexion_r	hip_adduction_r	hip_rotation_r	knee_angle_l_beta	knee_angle_r_beta	knee_angle_l	knee_angle_r	ankle_angle_l	ankle_angle_r	subtalar_angle_l	subtalar_angle_r	mtp_angle_l	mtp_angle_r	lumbar_ext	lumbar_bend	lumbar_rota	shoulder_flexion_r	shoulder_adduction_r	shoulder_rotation_r	elbow_flexion_r	shoulder_flexion_l	shoulder_adduction_l	shoulder_rotation_l	elbow_flexion_l
      0.21000000	     -2.69598882	     -6.34249874	     -2.67455122	     -0.78389950	      0.94265033	      0.29287335	     -3.38298677	     -8.76258198	     -8.74434795	     18.60676716	     11.12181609	      5.46226578	      0.70758958	      0.30576600	    -40.54189640	    -17.51910115	     -2.63316259	      1.53640196	     11.44381802	     -7.61095045	     12.41592059	     -0.40895099	     -7.84644714	      3.54247459	      3.44174011	     -9.32668335	     -2.75415808	    -11.56726559	     43.94272603	     -1.03287968	     -2.30561807	    -13.00024807	     47.83055884
      0.22000000	     -2.78377098	     -6.83155686	     -2.42475704	     -0.77432039	      0.94380949	      0.29399862	     -1.91931961	     -9.80211830	     -8.88171102	     17.78058244	     11.55497503	      5.12799842	      0.75349259	      0.29510030	    -43.17194551	    -16.90800190	     -3.97940269	      1.93416563	     10.86174828	     -7.38779785	     12.40934800	     -0.50778011	     -7.77627487	      4.02406154	      3.53347880	     -9.27674916	     -2.84164564	    -11.39508751	     44.11096556	     -1.58342442	     -2.15490064	    -13.11961988	     47.05549546
      0.23000000	     -2.98416558	     -7.27871514	     -2.19135575	     -0.76498139	      0.94470201	      0.29509295	     -0.26378551	    -10.75309765	     -8.84175549	     17.08212894	     11.96587654	      4.86495428	      0.79746167	      0.28436975	    -45.69118780	    -16.29318670	     -4.92147326	      2.34740177	     10.06257564	     -7.16916752	     12.21868575	     -0.63187162	     -7.61413778	      4.46004234	      3.64083717	     -9.22823225	     -2.97370785	    -11.18131469	     44.33534013	     -2.12096414	     -2.04340168	    -13.18179524	     46.22809289
      0.24000000	     -2.98372509	     -7.38765315	     -2.08198467	     -0.75599431	      0.94588910	      0.29628129	      1.15505641	    -11.25526338	     -8.75624020	     16.19804263	     12.09407754	      4.99793977	      0.83581540	      0.27475474	    -47.88869461	    -15.74228702	     -5.27447269	      2.75225199	      9.52162164	     -7.02713602	     12.11895620	     -0.69566902	     -7.72547070	      4.49054541	      3.87045187	     -9.07913176	     -3.09720628	    -10.96783795	     44.50744227	     -2.59789121	     -1.95214865	    -13.24447688	     45.52477128
      0.25000000	     -3.62044520	     -7.72810091	     -1.79287729	     -0.74725639	      0.94593590	      0.29715979	      3.42959548	    -11.96402726	     -8.34603556	     16.09054976	     12.40326323	      4.56745250	      0.87586908	      0.26704901	    -50.18360174	    -15.30078112	     -5.18354951	      3.16484591	      8.52628910	     -6.80726620	      9.24015387	     -1.60598780	     -7.07476803	      4.83342161	      3.86057624	     -8.98123360	     -3.26723248	    -10.68931772	     44.67833676	     -3.10928917	     -1.87881038	    -13.20429947	     44.60173753
      0.26000000	     -3.70236577	     -7.84289858	     -1.68217302	     -0.73854864	      0.94689232	      0.29818690	      4.98488853	    -12.36082080	     -8.14046208	     15.30080927	     12.53628363	      4.59338425	      0.90690150	      0.25654221	    -51.96162812	    -14.69878603	     -4.83721489	      3.39913513	      7.63900371	     -6.76742902	      9.15849781	     -1.66007166	     -7.08465222	      4.88967277	      4.08141627	     -8.83142596	     -3.43813401	    -10.37712903	     44.97438586	     -3.59109282	     -1.80185086	    -13.20892712	     43.86908830
      0.27000000	     -3.62175458	     -7.69050583	     -1.64799677	     -0.73013597	      0.94815266	      0.29929494	      6.32312966	    -12.43349810	     -8.00566582	     14.38655302	     12.43167944	      4.86148847	      0.93182304	      0.24774902	    -53.38952769	    -14.19497297	     -4.32169711	      3.67063528	      7.20640164	     -6.71699608	      9.19161293	     -1.68395840	     -7.32444300	      4.61185218	      4.36815761	     -8.57187681	     -3.57406864	    -10.18262026	     45.17886731	     -4.03700695	     -1.75016688	    -13.26716918	     43.27499500
      0.28000000	     -4.06344799	     -7.75851144	     -1.48441915	     -0.72186528	      0.94839741	      0.30017030	      8.32985879	    -12.66935817	     -7.57998830	     14.07340041	     12.52077142	      4.85104026	      0.95599480	      0.23925958	    -54.77446710	    -13.70856414	     -3.37485411	      3.87100288	      6.34183225	     -6.83858597	      8.83360925	     -1.86566858	     -6.92998433	      4.63051835	      4.45145755	     -8.37961336	     -3.73754587	     -9.87081777	     45.42340241	     -4.51634807	     -1.70461642	    -13.23447956	     42.46515956
      0.29000000	     -4.01796866	     -7.53475952	     -1.47526970	     -0.71352101	      0.94951533	      0.30111534	      9.63535273	    -12.56784706	     -7.48937370	     13.21176813	     12.34455912	      5.10387424	      0.97103894	      0.23081611	    -55.63643315	    -13.22478888	     -2.31670624	      4.18339717	      5.94496341	     -6.87290423	      8.82418083	     -1.92613135	     -7.09754162	      4.29144962	      4.71289426	     -8.12961965	     -3.90227701	     -9.65743601	     45.70295437	     -4.99193503	     -1.66938788	    -13.34152144	     41.84114315
      0.30000000	     -3.99407227	     -7.30012333	     -1.45787737	     -0.70532769	      0.95054807	      0.30201598	     10.96193882	    -12.41079076	     -7.35434814	     12.37708023	     12.14961997	      5.38722322	      0.98204413	      0.22199046	    -56.26698404	    -12.71911621	     -1.25015036	      4.42940033	      5.62011531	     -6.87723570	      8.85152178	     -1.98001498	     -7.25651221	      3.93774274	      4.95299685	     -7.85753725	     -4.02719018	     -9.48551506	     45.98450066	     -5.45479916	     -1.60887043	    -13.44911566	     41.24845856
